<?xml version="1.0" encoding="UTF-8" standalone="no"?>
<svg width="32" xmlns="http://www.w3.org/2000/svg" viewBox="0 0 32 32" height="32">
 <title>newtab-firefox-gry</title>
 <path d="m31.359 14.615c-0.044-0.289-0.088-0.459-0.088-0.459s-0.113 0.131-0.3 0.378a10.77 10.77 0 0 0 -0.371 -2.034 13.846 13.846 0 0 0 -0.937 -2.411 10.048 10.048 0 0 0 -0.856 -1.468q-0.176-0.263-0.359-0.51c-0.57-0.931-1.224-1.5-1.981-2.576a7.806 7.806 0 0 1 -0.991 -2.685 10.844 10.844 0 0 0 -0.476 1.757c-0.777-0.784-1.453-1.341-1.861-1.721-2.013-1.88-1.779-2.855-1.779-2.855s-3.76 4.197-2.131 8.569a8.4 8.4 0 0 0 2.8 3.733c1.576 1.3 3.273 2.323 4.168 4.937a8.377 8.377 0 0 0 -3.144 -3.317 7.573 7.573 0 0 1 0.6 3 7.124 7.124 0 0 1 -8.711 6.94 6.561 6.561 0 0 1 -1.765 -0.6 7.183 7.183 0 0 1 -2.115 -1.955l-0.01-0.017 0.126 0.046a6.5 6.5 0 0 0 0.9 0.241 5.628 5.628 0 0 0 3.583 -0.423c1.126-0.625 1.808-1.088 2.361-0.905h0.01c0.54 0.172 0.966-0.352 0.58-0.9a2.94 2.94 0 0 0 -2.848 -1.112c-1.127 0.164-2.16 0.965-3.637 0.189a3.129 3.129 0 0 1 -0.277 -0.163c-0.1-0.057 0.317 0.087 0.22 0.022a7.33 7.33 0 0 1 -0.928 -0.554c-0.022-0.018 0.223 0.07 0.2 0.052a3.581 3.581 0 0 1 -0.968 -0.979 1.741 1.741 0 0 1 -0.066 -1.554 1.371 1.371 0 0 1 0.6 -0.564c0.191 0.094 0.309 0.165 0.309 0.165s-0.087-0.16-0.134-0.244c0.017-0.006 0.032 0 0.049-0.011 0.167 0.072 0.537 0.26 0.732 0.375a1.016 1.016 0 0 1 0.335 0.3s0.067-0.033 0.017-0.173a0.9 0.9 0 0 0 -0.346 -0.424h0.016a2.94 2.94 0 0 1 0.426 0.265 2.079 2.079 0 0 0 0.17 -0.9 1.178 1.178 0 0 0 -0.069 -0.5c-0.053-0.1 0.03-0.14 0.123-0.035a0.976 0.976 0 0 0 -0.079 -0.238v-0.008s0.053-0.069 0.077-0.094a1.43 1.43 0 0 1 0.216 -0.176 9.973 9.973 0 0 1 1.465 -0.747c0.414-0.181 0.757-0.319 0.827-0.359a2.3 2.3 0 0 0 0.293 -0.225 1.968 1.968 0 0 0 0.66 -1.14 1.6 1.6 0 0 0 0.017 -0.178v-0.05-0.03-0.012-0.013c-0.06-0.225-0.448-0.394-2.476-0.584a1.773 1.773 0 0 1 -1.45 -1.36v0.009c-0.029 0.074-0.055 0.149-0.081 0.225 0.026-0.075 0.052-0.15 0.081-0.225v-0.016a5.138 5.138 0 0 1 1.986 -2.466c0.052-0.042-0.208 0.011-0.156-0.032a5.156 5.156 0 0 1 0.53 -0.224c0.091-0.038-0.39-0.222-0.815-0.177a2.2 2.2 0 0 0 -0.756 0.178c0.1-0.086 0.4-0.2 0.329-0.2a4.865 4.865 0 0 0 -1.542 0.583 0.314 0.314 0 0 1 0.03 -0.14 2.4 2.4 0 0 0 -0.964 0.744 1.275 1.275 0 0 0 0.01 -0.174 2.876 2.876 0 0 0 -0.473 0.444l-0.009 0.007a6.285 6.285 0 0 0 -3.517 -0.3l-0.01-0.009h0.012a2.943 2.943 0 0 1 -0.625 -0.7l-0.016 0.004-0.019-0.022c-0.077-0.114-0.156-0.243-0.237-0.387-0.058-0.1-0.117-0.217-0.176-0.338 0-0.008-0.009-0.011-0.013-0.012-0.024 0-0.041 0.111-0.061 0.082v-0.006a4.308 4.308 0 0 1 -0.283 -1.687l-0.016 0.008a1.884 1.884 0 0 0 -0.714 0.934c-0.061 0.137-0.1 0.212-0.14 0.287v-0.035c0.009-0.069 0.039-0.211 0.032-0.2s-0.012 0.019-0.019 0.029a1.733 1.733 0 0 0 -0.251 0.372 2.355 2.355 0 0 0 -0.15 0.382c-0.006 0.021 0-0.018 0-0.064s0.009-0.128 0-0.111l-0.022 0.043a9.5 9.5 0 0 0 -0.8 3.035 3.022 3.022 0 0 0 -0.031 0.538v0.016a6.628 6.628 0 0 0 -0.817 1.1 15.606 15.606 0 0 0 -1.727 4.23 10.351 10.351 0 0 1 0.925 -1.621 15 15 0 0 0 -1.045 5.5 14.233 14.233 0 0 1 0.45 -1.629 13.807 13.807 0 0 0 1.248 6.464 15.037 15.037 0 0 0 5.951 6.748 13.016 13.016 0 0 0 3.468 1.662c0.162 0.059 0.326 0.117 0.494 0.173-0.053-0.021-0.1-0.044-0.153-0.067a15.7 15.7 0 0 0 4.5 0.662c5.394 0 7.175-2.054 7.339-2.259a2.73 2.73 0 0 0 0.637 -0.856q0.156-0.064 0.315-0.137l0.067-0.03 0.121-0.057a11.312 11.312 0 0 0 2.277 -1.426 5.5 5.5 0 0 0 2.123 -3.1 1.938 1.938 0 0 0 0.029 -1.428q0.083-0.131 0.171-0.28a12.706 12.706 0 0 0 1.907 -6.181v-0.006-0.177a7.731 7.731 0 0 0 -0.121 -1.386z" fill="context-fill"/>
</svg>
